<svg width="1024" height="1024" xmlns="http://www.w3.org/2000/svg">

<g><path d="M1251.882 587.646l-408.236 408.236c-37.492 37.492-98.276 37.49-135.764 0l-0.72-0.72 476.838-475.398-521.206-519.764h97.442c26.51 0 50.509 10.745 67.882 28.118l423.764 423.764c37.49 37.49 37.49 98.274 0 135.764zM995.882 587.646l-408.236 408.236c-18.744 18.746-43.314 28.118-67.882 28.118s-49.138-9.372-67.882-28.118l-423.764-423.764c-17.373-17.373-28.118-41.372-28.118-67.882l-0-0v-408.236c0-53.020 42.98-96 96-96h408.236c0-0 0.001-0 0.001-0 26.509 0 50.509 10.745 67.881 28.118l423.764 423.764c37.49 37.49 37.49 98.274 0 135.764zM928 519.764l-423.764-423.764h-408.236v408.236l423.772 423.756 408.228-408.228zM288 192c-53.020 0-96 42.98-96 96s42.98 96 96 96 96-42.98 96-96-42.98-96-96-96z"></path></g>
</svg>