<svg width="320" height="275" viewBox="0 0 320 275" fill="none" xmlns="http://www.w3.org/2000/svg">
<g clip-path="url(#clip0_6670_3759)">
<path d="M24.029 251.993C25.873 252.641 27.8527 252.803 29.7776 252.464C31.7025 252.125 33.5076 251.296 35.0191 250.057C38.8684 246.826 40.0755 241.505 41.0572 236.576L43.9617 221.998L37.8809 226.185C33.5076 229.196 29.0361 232.304 26.0084 236.665C22.9807 241.027 21.6598 246.981 24.0917 251.7" fill="#E6E6E6"/>
<path d="M24.9681 270.657C24.2028 265.081 23.4153 259.433 23.9535 253.797C24.4304 248.791 25.9575 243.904 29.0664 239.894C30.7166 237.77 32.7246 235.951 35.0001 234.517C35.5933 234.143 36.1394 235.083 35.5487 235.456C31.6114 237.944 28.5659 241.618 26.8515 245.949C24.958 250.765 24.654 256.015 24.9801 261.13C25.1772 264.224 25.5962 267.297 26.0169 270.367C26.0501 270.506 26.0294 270.652 25.9589 270.776C25.8884 270.901 25.7734 270.993 25.6371 271.036C25.4981 271.073 25.35 271.054 25.2248 270.983C25.0996 270.912 25.0076 270.795 24.9685 270.656L24.9681 270.657Z" fill="#F2F2F2"/>
<path d="M30.4771 261.71C31.2678 262.912 32.3548 263.89 33.6333 264.55C34.9119 265.21 36.3389 265.53 37.7769 265.478C41.4733 265.303 44.5536 262.724 47.3262 260.275L55.5288 253.033L50.1002 252.773C46.1962 252.586 42.1915 252.411 38.4731 253.616C34.7547 254.821 31.3254 257.718 30.6456 261.567" fill="#E6E6E6"/>
<path d="M22.8047 273.862C26.4894 267.342 30.763 260.096 38.3999 257.78C40.5232 257.139 42.7495 256.909 44.9591 257.103C45.6556 257.163 45.4816 258.237 44.7866 258.177C41.0827 257.869 37.386 258.847 34.3187 260.946C31.3671 262.955 29.0689 265.748 27.1239 268.71C25.9324 270.525 24.8652 272.416 23.798 274.305C23.4569 274.908 22.4597 274.473 22.8047 273.862Z" fill="#F2F2F2"/>
<path d="M317.639 193.377H114.494C113.868 193.376 113.268 193.127 112.826 192.684C112.383 192.242 112.134 191.642 112.133 191.016V2.36113C112.134 1.73517 112.383 1.13508 112.826 0.692462C113.268 0.249843 113.868 0.000818285 114.494 0H317.639C318.265 0.000818285 318.865 0.249843 319.308 0.692462C319.75 1.13508 319.999 1.73517 320 2.36113V191.015C319.999 191.641 319.75 192.241 319.308 192.684C318.865 193.127 318.265 193.376 317.639 193.377Z" fill="white"/>
<path d="M317.639 193.377H114.494C113.868 193.376 113.268 193.127 112.826 192.684C112.383 192.242 112.134 191.642 112.133 191.016V2.36113C112.134 1.73517 112.383 1.13508 112.826 0.692462C113.268 0.249843 113.868 0.000818285 114.494 0H317.639C318.265 0.000818285 318.865 0.249843 319.308 0.692462C319.75 1.13508 319.999 1.73517 320 2.36113V191.015C319.999 191.641 319.75 192.241 319.308 192.684C318.865 193.127 318.265 193.376 317.639 193.377ZM114.494 0.942592C114.119 0.943406 113.759 1.0928 113.494 1.35807C113.229 1.62334 113.08 1.98288 113.079 2.35803V191.015C113.08 191.39 113.229 191.75 113.494 192.015C113.759 192.28 114.119 192.43 114.494 192.431H317.639C318.014 192.43 318.374 192.281 318.639 192.015C318.904 191.75 319.054 191.39 319.054 191.015V2.36113C319.053 1.98598 318.904 1.62643 318.639 1.36116C318.374 1.0959 318.014 0.946504 317.639 0.94569L114.494 0.942592Z" fill="#CACACA"/>
<path d="M210.484 49.0234C210.059 49.0242 209.652 49.1934 209.352 49.4939C209.052 49.7944 208.884 50.2018 208.884 50.6264C208.884 51.0511 209.052 51.4584 209.352 51.7589C209.652 52.0595 210.059 52.2287 210.484 52.2294H298.443C298.867 52.2287 299.274 52.0595 299.574 51.7589C299.874 51.4584 300.043 51.0511 300.043 50.6264C300.043 50.2018 299.874 49.7944 299.574 49.4939C299.274 49.1934 298.867 49.0242 298.443 49.0234H210.484Z" fill="#E4E4E4"/>
<path d="M210.484 58.6416C210.059 58.6426 209.653 58.812 209.353 59.1125C209.053 59.413 208.885 59.8201 208.885 60.2446C208.885 60.6691 209.053 61.0762 209.353 61.3767C209.653 61.6772 210.059 61.8465 210.484 61.8476H255.389C255.813 61.8465 256.22 61.6772 256.52 61.3767C256.819 61.0762 256.988 60.6691 256.988 60.2446C256.988 59.8201 256.819 59.413 256.52 59.1125C256.22 58.812 255.813 58.6426 255.389 58.6416H210.484Z" fill="#E4E4E4"/>
<path d="M133.605 110.367C133.18 110.368 132.774 110.538 132.474 110.838C132.174 111.139 132.006 111.546 132.006 111.97C132.006 112.395 132.174 112.802 132.474 113.102C132.774 113.403 133.18 113.572 133.605 113.573H298.528C298.952 113.572 299.359 113.403 299.659 113.102C299.959 112.802 300.127 112.395 300.127 111.97C300.127 111.546 299.959 111.139 299.659 110.838C299.359 110.538 298.952 110.368 298.528 110.367H133.605Z" fill="#E4E4E4"/>
<path d="M133.605 119.986C133.18 119.987 132.774 120.157 132.474 120.457C132.174 120.758 132.006 121.165 132.006 121.589C132.006 122.014 132.174 122.421 132.474 122.721C132.774 123.022 133.18 123.191 133.605 123.192H255.474C255.898 123.191 256.305 123.022 256.605 122.721C256.905 122.421 257.073 122.014 257.073 121.589C257.073 121.165 256.905 120.758 256.605 120.457C256.305 120.157 255.898 119.987 255.474 119.986H133.605Z" fill="#E4E4E4"/>
<path d="M133.605 129.388C133.18 129.389 132.774 129.558 132.474 129.859C132.174 130.159 132.006 130.566 132.006 130.991C132.006 131.415 132.174 131.822 132.474 132.123C132.774 132.423 133.18 132.593 133.605 132.594H298.528C298.952 132.593 299.359 132.423 299.659 132.123C299.959 131.822 300.127 131.415 300.127 130.991C300.127 130.566 299.959 130.159 299.659 129.859C299.359 129.558 298.952 129.389 298.528 129.388H133.605Z" fill="#E4E4E4"/>
<path d="M133.605 139.007C133.18 139.008 132.774 139.177 132.474 139.478C132.174 139.778 132.006 140.185 132.006 140.61C132.006 141.034 132.174 141.441 132.474 141.742C132.774 142.042 133.18 142.212 133.605 142.213H255.474C255.898 142.212 256.305 142.042 256.605 141.742C256.905 141.441 257.073 141.034 257.073 140.61C257.073 140.185 256.905 139.778 256.605 139.478C256.305 139.177 255.898 139.008 255.474 139.007H133.605Z" fill="#E4E4E4"/>
<path d="M133.605 148.658C133.18 148.659 132.774 148.829 132.474 149.129C132.174 149.43 132.006 149.837 132.006 150.261C132.006 150.686 132.174 151.093 132.474 151.393C132.774 151.694 133.18 151.863 133.605 151.864H298.528C298.952 151.863 299.359 151.694 299.659 151.393C299.959 151.093 300.127 150.686 300.127 150.261C300.127 149.837 299.959 149.43 299.659 149.129C299.359 148.829 298.952 148.659 298.528 148.658H133.605Z" fill="#E4E4E4"/>
<path d="M133.605 158.276C133.18 158.277 132.774 158.447 132.474 158.747C132.174 159.048 132.006 159.455 132.006 159.879C132.006 160.304 132.174 160.711 132.474 161.011C132.774 161.312 133.18 161.481 133.605 161.482H255.474C255.898 161.481 256.305 161.312 256.605 161.011C256.905 160.711 257.073 160.304 257.073 159.879C257.073 159.455 256.905 159.048 256.605 158.747C256.305 158.447 255.898 158.277 255.474 158.276H133.605Z" fill="#E4E4E4"/>
<path d="M159.727 78.4651C155.172 78.4652 150.719 77.1145 146.932 74.5839C143.145 72.0533 140.193 68.4565 138.45 64.2482C136.707 60.04 136.25 55.4093 137.139 50.9418C138.028 46.4744 140.221 42.3707 143.442 39.1498C146.663 35.929 150.766 33.7355 155.234 32.8468C159.701 31.9582 164.332 32.4143 168.54 34.1574C172.749 35.9005 176.345 38.8523 178.876 42.6397C181.407 46.427 182.757 50.8797 182.757 55.4347C182.75 61.5406 180.322 67.3944 176.004 71.712C171.687 76.0295 165.833 78.4582 159.727 78.4651Z" fill="#FF8900"/>
<path d="M89.8175 165.545C89.7777 164.704 89.554 163.883 89.1623 163.138C88.7705 162.393 88.2203 161.743 87.5502 161.234C86.8802 160.725 86.1066 160.369 85.2841 160.191C84.4615 160.013 83.61 160.018 82.7894 160.205L75.177 149.477L67.5293 152.513L78.4923 167.512C78.8976 168.869 79.7868 170.031 80.9914 170.777C82.1961 171.523 83.6325 171.801 85.0284 171.559C86.4244 171.316 87.6829 170.57 88.5656 169.462C89.4482 168.353 89.8937 166.96 89.8175 165.545Z" fill="#A0616A"/>
<path d="M74.9811 164.749L51.947 134.867L60.5777 107.743C61.2101 100.923 65.4775 99.0189 65.6591 98.9411L65.9361 98.8223L73.4464 118.85L67.932 133.555L81.4668 156.318L74.9811 164.749Z" fill="#3F3D56"/>
<path d="M154.975 72.6328C154.14 72.7375 153.338 73.024 152.625 73.4721C151.913 73.9203 151.308 74.5191 150.852 75.2265C150.396 75.934 150.101 76.7327 149.987 77.5666C149.873 78.4004 149.944 79.249 150.194 80.0527L140.086 88.4718L143.704 95.8618L157.811 83.7719C159.133 83.2629 160.223 82.2866 160.873 81.0279C161.524 79.7692 161.69 78.3156 161.34 76.9425C160.991 75.5695 160.15 74.3724 158.976 73.5781C157.803 72.7837 156.379 72.4474 154.975 72.6328Z" fill="#A0616A"/>
<path d="M155.329 87.4863L127.317 112.762L99.6066 106.254C92.7586 106.151 90.5301 102.043 90.4385 101.868L90.2986 101.601L109.686 92.5652L124.773 96.9261L146.422 81.6719L155.329 87.4863Z" fill="#3F3D56"/>
<path d="M106.809 267.171L114.335 267.17L117.915 238.141L106.807 238.141L106.809 267.171Z" fill="#A0616A"/>
<path d="M128.85 274.157L105.196 274.158L105.195 265.019L122.213 265.019C123.973 265.018 125.661 265.718 126.906 266.962C128.15 268.206 128.849 269.894 128.849 271.654L128.85 274.157Z" fill="#2F2E41"/>
<path d="M76.7277 267.171L84.254 267.17L87.8345 238.141L76.7268 238.141L76.7277 267.171Z" fill="#A0616A"/>
<path d="M98.769 274.157L75.1153 274.158L75.1149 265.019L92.1325 265.019C93.004 265.019 93.8669 265.19 94.6721 265.524C95.4772 265.857 96.2088 266.346 96.8251 266.962C97.4413 267.578 97.9301 268.31 98.2637 269.115C98.5972 269.92 98.7689 270.783 98.7689 271.654L98.769 274.157Z" fill="#2F2E41"/>
<path d="M74.0508 161.209L74.6646 204.181L75.2789 260.659L88.7841 259.432L95.5372 181.468L104.132 259.432H118.075L119.479 180.854L114.568 163.665L74.0508 161.209Z" fill="#2F2E41"/>
<path d="M100.485 166.979C85.7899 166.98 72.2633 160.329 72.0808 160.238L71.9291 160.162L70.6959 130.567C70.3383 129.521 63.2967 108.885 62.1041 102.326C60.8958 95.6808 78.408 89.8486 80.5346 89.1666L81.0172 83.8207L100.642 81.7061L103.129 88.5464L110.169 91.1863C110.968 91.4858 111.628 92.0677 112.026 92.8218C112.424 93.5758 112.531 94.4495 112.328 95.2774L108.415 111.19L117.972 163.837L115.914 163.926C110.982 166.153 105.66 166.979 100.485 166.979Z" fill="#3F3D56"/>
<path d="M98.3748 76.5892C105.222 72.8461 107.739 64.2608 103.996 57.4135C100.252 50.5662 91.6671 48.0497 84.8198 51.7928C77.9725 55.5359 75.456 64.1212 79.1991 70.9685C82.9422 77.8158 91.5275 80.3323 98.3748 76.5892Z" fill="#A0616A"/>
<path d="M80.1534 77.8699C82.8462 80.7383 87.8471 79.1985 88.1979 75.2799C88.2255 74.9756 88.2235 74.6694 88.192 74.3656C88.0108 72.6298 87.008 71.0539 87.2482 69.2211C87.3026 68.765 87.4725 68.3303 87.7419 67.9582C89.8877 65.0848 94.9249 69.2434 96.95 66.6422C98.1918 65.0472 96.7321 62.5359 97.685 60.7532C98.9427 58.4003 102.668 59.561 105.004 58.2724C107.603 56.8388 107.448 52.8508 105.737 50.4251C103.65 47.4669 99.9918 45.8884 96.3788 45.6609C92.7659 45.4334 89.1778 46.4101 85.8049 47.7246C81.9724 49.2181 78.1721 51.2822 75.8137 54.652C72.9456 58.7501 72.6696 64.2596 74.1039 69.0516C74.9765 71.9666 77.9544 75.5276 80.1534 77.8699Z" fill="#2F2E41"/>
<path d="M179.543 274.522H0.470009C0.345355 274.522 0.225799 274.473 0.137655 274.384C0.0495111 274.296 0 274.177 0 274.052C0 273.927 0.0495111 273.808 0.137655 273.72C0.225799 273.632 0.345355 273.582 0.470009 273.582H179.543C179.668 273.582 179.788 273.632 179.876 273.72C179.964 273.808 180.013 273.927 180.013 274.052C180.013 274.177 179.964 274.296 179.876 274.384C179.788 274.473 179.668 274.522 179.543 274.522Z" fill="#CACACA"/>
<path d="M158.397 64.1327C157.982 64.1332 157.582 63.976 157.278 63.693L149.684 56.6394C149.365 56.3424 149.177 55.9308 149.161 55.4951C149.145 55.0594 149.303 54.6352 149.599 54.3157C149.896 53.9963 150.307 53.8077 150.743 53.7914C151.179 53.7751 151.603 53.9324 151.923 54.2288L158.355 60.2035L171.082 47.4774C171.234 47.3237 171.415 47.2017 171.615 47.1182C171.815 47.0348 172.03 46.9916 172.246 46.9912C172.463 46.9908 172.677 47.0332 172.877 47.1159C173.077 47.1986 173.259 47.32 173.412 47.4731C173.566 47.6263 173.687 47.8082 173.77 48.0083C173.852 48.2085 173.895 48.423 173.894 48.6396C173.894 48.8562 173.85 49.0705 173.767 49.2703C173.684 49.4702 173.561 49.6516 173.408 49.8041L159.561 63.651C159.408 63.8039 159.227 63.9252 159.027 64.0078C158.827 64.0905 158.613 64.1329 158.397 64.1327Z" fill="white"/>
</g>
<defs>
<clipPath id="clip0_6670_3759">
<rect width="320" height="274.594" fill="white"/>
</clipPath>
</defs>
</svg>
